<svg xmlns="http://www.w3.org/2000/svg" xmlns:xlink="http://www.w3.org/1999/xlink" width="1200" zoomAndPan="magnify" viewBox="0 0 900 359.999987" height="480" preserveAspectRatio="xMidYMid meet" version="1.0"><defs><g/></defs><g fill="#000000" fill-opacity="1"><g transform="translate(7.495329, 222.550374)"><g><path d="M 62.265625 -29.515625 C 62.207031 -49.597656 50.101562 -58.582031 33.867188 -58.582031 C 16.179688 -58.582031 3.738281 -47.535156 3.738281 -28.675781 C 3.738281 -9.820312 15.84375 1.117188 34.367188 1.117188 C 47.257812 1.117188 57.578125 -5.523438 61.371094 -17.128906 L 46.640625 -19.304688 C 44.464844 -14.226562 40.003906 -11.550781 34.257812 -11.550781 C 26.613281 -11.550781 20.253906 -16.125 19.582031 -25.664062 L 62.097656 -25.664062 Z M 33.976562 -47.199219 C 40.839844 -47.199219 45.972656 -43.128906 46.476562 -35.09375 L 19.863281 -35.09375 C 21.144531 -43.519531 26.332031 -47.199219 33.976562 -47.199219 Z M 33.976562 -47.199219 "/></g></g></g><g fill="#000000" fill-opacity="1"><g transform="translate(73.662201, 222.550374)"><g><path d="M 46.140625 1.117188 C 64.105469 1.117188 78.5 -8.144531 84.246094 -23.433594 L 68.625 -29.125 C 65.054688 -19.75 56.515625 -14.28125 46.140625 -14.28125 C 32.246094 -14.28125 21.589844 -24.046875 21.589844 -40.335938 C 21.589844 -56.628906 32.246094 -66.335938 46.140625 -66.335938 C 56.515625 -66.335938 65.054688 -60.925781 68.625 -51.550781 L 84.246094 -57.242188 C 78.5 -72.53125 64.105469 -81.734375 46.140625 -81.734375 C 22.429688 -81.734375 4.910156 -65.667969 4.910156 -40.335938 C 4.910156 -15.007812 22.429688 1.117188 46.140625 1.117188 Z M 46.140625 1.117188 "/></g></g></g><g fill="#000000" fill-opacity="1"><g transform="translate(161.196622, 222.550374)"><g><path d="M 35.039062 1.117188 C 53.449219 1.117188 66.503906 -9.988281 66.503906 -28.734375 C 66.503906 -47.367188 53.503906 -58.527344 35.039062 -58.527344 C 16.683594 -58.527344 3.625 -47.367188 3.625 -28.734375 C 3.625 -9.988281 16.792969 1.117188 35.039062 1.117188 Z M 34.871094 -11.660156 C 25.886719 -11.660156 19.582031 -18.46875 19.582031 -28.734375 C 19.582031 -39 25.886719 -45.804688 34.871094 -45.804688 C 44.1875 -45.804688 50.546875 -39 50.546875 -28.734375 C 50.546875 -18.46875 44.1875 -11.660156 34.871094 -11.660156 Z M 34.871094 -11.660156 "/></g></g></g><g fill="#000000" fill-opacity="1"><g transform="translate(231.324581, 222.550374)"><g><path d="M 76.269531 -58.46875 C 68.679688 -58.46875 62.542969 -55.625 58.527344 -49.878906 C 55.511719 -55.457031 49.265625 -58.46875 40.953125 -58.46875 C 33.921875 -58.46875 28.121094 -55.679688 24.324219 -50.605469 L 24.324219 -57.355469 L 8.3125 -57.355469 L 8.3125 0 L 24.324219 0 L 24.324219 -31.523438 C 24.324219 -42.289062 29.515625 -45.582031 35.09375 -45.582031 C 40.171875 -45.582031 44.300781 -42.570312 44.300781 -35.707031 L 44.300781 0 L 60.535156 0 L 60.535156 -32.359375 C 60.535156 -42.289062 65.613281 -45.582031 71.359375 -45.582031 C 76.15625 -45.582031 80.398438 -42.625 80.398438 -35.875 L 80.398438 0 L 96.464844 0 L 96.464844 -40.449219 C 96.464844 -52.222656 88.542969 -58.46875 76.269531 -58.46875 Z M 76.269531 -58.46875 "/></g></g></g><g fill="#000000" fill-opacity="1"><g transform="translate(335.093875, 222.550374)"><g><path d="M 76.269531 -58.46875 C 68.679688 -58.46875 62.542969 -55.625 58.527344 -49.878906 C 55.511719 -55.457031 49.265625 -58.46875 40.953125 -58.46875 C 33.921875 -58.46875 28.121094 -55.679688 24.324219 -50.605469 L 24.324219 -57.355469 L 8.3125 -57.355469 L 8.3125 0 L 24.324219 0 L 24.324219 -31.523438 C 24.324219 -42.289062 29.515625 -45.582031 35.09375 -45.582031 C 40.171875 -45.582031 44.300781 -42.570312 44.300781 -35.707031 L 44.300781 0 L 60.535156 0 L 60.535156 -32.359375 C 60.535156 -42.289062 65.613281 -45.582031 71.359375 -45.582031 C 76.15625 -45.582031 80.398438 -42.625 80.398438 -35.875 L 80.398438 0 L 96.464844 0 L 96.464844 -40.449219 C 96.464844 -52.222656 88.542969 -58.46875 76.269531 -58.46875 Z M 76.269531 -58.46875 "/></g></g></g><g fill="#000000" fill-opacity="1"><g transform="translate(438.863169, 222.550374)"><g><path d="M 62.265625 -29.515625 C 62.207031 -49.597656 50.101562 -58.582031 33.867188 -58.582031 C 16.179688 -58.582031 3.738281 -47.535156 3.738281 -28.675781 C 3.738281 -9.820312 15.84375 1.117188 34.367188 1.117188 C 47.257812 1.117188 57.578125 -5.523438 61.371094 -17.128906 L 46.640625 -19.304688 C 44.464844 -14.226562 40.003906 -11.550781 34.257812 -11.550781 C 26.613281 -11.550781 20.253906 -16.125 19.582031 -25.664062 L 62.097656 -25.664062 Z M 33.976562 -47.199219 C 40.839844 -47.199219 45.972656 -43.128906 46.476562 -35.09375 L 19.863281 -35.09375 C 21.144531 -43.519531 26.332031 -47.199219 33.976562 -47.199219 Z M 33.976562 -47.199219 "/></g></g></g><g fill="#000000" fill-opacity="1"><g transform="translate(505.030019, 222.550374)"><g><path d="M 24.046875 -48.875 L 23.542969 -57.355469 L 8.3125 -57.355469 L 8.3125 0 L 24.492188 0 L 24.492188 -27.953125 C 24.492188 -40.113281 30.296875 -43.683594 42.457031 -43.683594 L 42.457031 -58.023438 C 34.480469 -58.023438 27.171875 -53.726562 24.046875 -48.875 Z M 24.046875 -48.875 "/></g></g></g><g fill="#000000" fill-opacity="1"><g transform="translate(548.546174, 222.550374)"><g><path d="M 34.257812 1.058594 C 48.484375 1.058594 59.640625 -6.527344 62.429688 -20.085938 L 47.589844 -21.703125 C 45.804688 -14.898438 40.839844 -11.660156 34.089844 -11.660156 C 25.441406 -11.660156 19.582031 -18.523438 19.582031 -28.734375 C 19.582031 -39 25.441406 -45.804688 34.089844 -45.804688 C 40.839844 -45.804688 45.804688 -42.625 47.589844 -35.761719 L 62.429688 -37.378906 C 59.640625 -50.9375 48.761719 -58.46875 34.257812 -58.46875 C 16.234375 -58.46875 3.515625 -46.585938 3.515625 -28.734375 C 3.515625 -10.933594 16.234375 1.058594 34.257812 1.058594 Z M 34.257812 1.058594 "/></g></g></g><g fill="#000000" fill-opacity="1"><g transform="translate(614.099346, 222.550374)"><g><path d="M 62.265625 -29.515625 C 62.207031 -49.597656 50.101562 -58.582031 33.867188 -58.582031 C 16.179688 -58.582031 3.738281 -47.535156 3.738281 -28.675781 C 3.738281 -9.820312 15.84375 1.117188 34.367188 1.117188 C 47.257812 1.117188 57.578125 -5.523438 61.371094 -17.128906 L 46.640625 -19.304688 C 44.464844 -14.226562 40.003906 -11.550781 34.257812 -11.550781 C 26.613281 -11.550781 20.253906 -16.125 19.582031 -25.664062 L 62.097656 -25.664062 Z M 33.976562 -47.199219 C 40.839844 -47.199219 45.972656 -43.128906 46.476562 -35.09375 L 19.863281 -35.09375 C 21.144531 -43.519531 26.332031 -47.199219 33.976562 -47.199219 Z M 33.976562 -47.199219 "/></g></g></g><path fill="#5e17eb" d="M 774.164062 196.554688 C 777.042969 196.945312 782.671875 196.378906 791.046875 194.855469 C 798.550781 193.453125 804.628906 192.773438 809.316406 192.835938 C 813.988281 192.886719 818.414062 194.085938 822.574219 196.449219 C 826.742188 198.824219 830.105469 202.40625 832.640625 207.152344 C 835.980469 213.386719 836.964844 220.089844 835.605469 227.230469 C 835.003906 230.402344 833.746094 233.441406 831.804688 236.34375 C 830.042969 239 827.707031 241.542969 824.816406 243.96875 C 824.554688 244.195312 824.292969 244.40625 824.027344 244.625 L 830.226562 256.214844 L 813.132812 265.375 L 806.957031 253.839844 C 806.542969 253.976562 806.117188 254.117188 805.699219 254.238281 C 793.609375 257.824219 782.941406 255.132812 773.683594 246.140625 L 786.226562 231.859375 L 786.53125 231.507812 C 789.976562 234.503906 793.316406 236.453125 796.554688 237.351562 C 800.199219 237.785156 804.113281 236.875 808.304688 234.625 C 810.222656 233.597656 811.828125 232.492188 813.101562 231.316406 L 813.109375 231.316406 C 814.753906 229.808594 815.863281 228.183594 816.429688 226.441406 C 817.429688 223.339844 817.171875 220.394531 815.671875 217.585938 C 814.117188 214.667969 811.898438 213.011719 809.039062 212.621094 C 806.152344 212.234375 800.523438 212.800781 792.15625 214.316406 C 784.652344 215.726562 778.566406 216.40625 773.878906 216.339844 C 769.214844 216.296875 764.792969 215.09375 760.621094 212.726562 C 756.460938 210.355469 753.097656 206.777344 750.554688 202.023438 C 747.222656 195.792969 746.230469 189.097656 747.589844 181.949219 C 748.191406 178.777344 749.457031 175.738281 751.390625 172.832031 C 753.160156 170.175781 755.496094 167.632812 758.386719 165.210938 C 758.640625 164.984375 758.910156 164.773438 759.179688 164.554688 L 752.976562 152.964844 L 770.070312 143.804688 L 776.238281 155.335938 C 776.664062 155.203125 777.078125 155.0625 777.496094 154.941406 C 789.59375 151.355469 800.261719 154.046875 809.515625 163.035156 L 796.976562 177.316406 L 796.671875 177.671875 C 793.21875 174.683594 789.886719 172.726562 786.648438 171.828125 C 783.003906 171.394531 779.082031 172.308594 774.890625 174.554688 C 772.972656 175.582031 771.367188 176.6875 770.09375 177.863281 L 770.085938 177.863281 C 768.449219 179.371094 767.339844 180.992188 766.765625 182.738281 C 765.773438 185.839844 766.015625 188.785156 767.523438 191.597656 C 769.082031 194.507812 771.304688 196.167969 774.164062 196.554688 Z M 723.296875 88.296875 L 727.882812 96.867188 C 729.25 99.417969 732.425781 100.382812 734.976562 99.015625 C 737.523438 97.648438 738.488281 94.476562 737.121094 91.925781 L 732.5 83.289062 C 740.738281 81.417969 749.53125 85.175781 753.707031 92.988281 C 758.726562 102.359375 755.199219 114.03125 745.828125 119.054688 C 736.457031 124.078125 724.796875 120.542969 719.777344 111.164062 C 715.636719 103.429688 717.316406 94.128906 723.296875 88.296875 Z M 688.242188 55.804688 C 679.125 61.359375 674.234375 69.972656 669.753906 78.910156 C 666.417969 85.570312 663.636719 92.539062 658.84375 98.386719 C 657.777344 99.6875 656.542969 100.777344 655.09375 101.636719 C 653.253906 102.734375 651.449219 102.472656 649.8125 101.304688 C 648.234375 100.171875 647.695312 98.5 647.867188 96.578125 C 648.453125 90.160156 651.625 84.804688 654.882812 79.5 C 659.328125 72.261719 664.664062 65.773438 671.601562 60.765625 C 676.464844 57.25 681.808594 54.882812 687.945312 54.742188 C 687.945312 54.742188 687.945312 54.742188 687.953125 54.742188 C 688.527344 54.734375 688.738281 55.5 688.242188 55.804688 Z M 793.960938 99.242188 L 752.042969 73.109375 C 744.09375 67.335938 733.929688 65.863281 724.804688 68.902344 L 721.101562 61.980469 C 720.796875 61.410156 720.449219 60.863281 720.074219 60.339844 C 711.105469 47.820312 694.011719 41.417969 679.097656 45.578125 C 662.816406 50.117188 651.574219 64.859375 643.351562 79.632812 C 640.789062 84.230469 638.367188 89.027344 637.617188 94.226562 C 636.871094 99.433594 638.0625 105.171875 641.871094 108.796875 C 647.082031 113.761719 655.816406 113.308594 661.894531 109.449219 C 667.96875 105.597656 671.871094 99.113281 674.914062 92.582031 C 677.957031 86.058594 680.429688 79.175781 684.652344 73.34375 C 688.886719 67.515625 695.363281 62.738281 702.5625 62.777344 C 702.65625 62.777344 702.753906 62.78125 702.851562 62.78125 C 707.15625 62.910156 711.042969 65.398438 713.074219 69.195312 L 715.585938 73.882812 C 708.113281 79.8125 703.78125 89.019531 704.167969 98.765625 L 702.667969 148.160156 C 703.363281 165.542969 707.984375 182.546875 716.1875 197.882812 L 775.761719 309.207031 C 778.960938 315.1875 786.402344 317.4375 792.382812 314.238281 L 882.367188 266.019531 C 888.34375 262.808594 890.59375 255.371094 887.394531 249.386719 L 827.820312 138.058594 C 819.617188 122.722656 808.035156 109.457031 793.960938 99.242188 " fill-opacity="1" fill-rule="nonzero"/></svg>