<svg xmlns="http://www.w3.org/2000/svg" xmlns:xlink="http://www.w3.org/1999/xlink" width="100" zoomAndPan="magnify" viewBox="0 0 75 30.000001" height="40" preserveAspectRatio="xMidYMid meet" version="1.0"><defs><g/><clipPath id="fe84243eb3"><path d="M 52.542969 3.34375 L 72.867188 3.34375 L 72.867188 25.84375 L 52.542969 25.84375 Z M 52.542969 3.34375 " clip-rule="nonzero"/></clipPath></defs><g fill="#ffffff" fill-opacity="1"><g transform="translate(1.810959, 17.545398)"><g><path d="M 5.019531 -2.378906 C 5.015625 -4 4.039062 -4.722656 2.730469 -4.722656 C 1.304688 -4.722656 0.300781 -3.832031 0.300781 -2.3125 C 0.300781 -0.792969 1.277344 0.0898438 2.773438 0.0898438 C 3.8125 0.0898438 4.644531 -0.445312 4.949219 -1.382812 L 3.761719 -1.558594 C 3.585938 -1.148438 3.226562 -0.929688 2.761719 -0.929688 C 2.144531 -0.929688 1.632812 -1.300781 1.578125 -2.070312 L 5.007812 -2.070312 Z M 2.738281 -3.804688 C 3.292969 -3.804688 3.707031 -3.476562 3.746094 -2.832031 L 1.601562 -2.832031 C 1.707031 -3.507812 2.125 -3.804688 2.738281 -3.804688 Z M 2.738281 -3.804688 "/></g></g><g transform="translate(7.147218, 17.545398)"><g><path d="M 3.722656 0.0898438 C 5.167969 0.0898438 6.332031 -0.65625 6.792969 -1.890625 L 5.535156 -2.347656 C 5.246094 -1.59375 4.558594 -1.152344 3.722656 -1.152344 C 2.601562 -1.152344 1.742188 -1.9375 1.742188 -3.253906 C 1.742188 -4.566406 2.601562 -5.351562 3.722656 -5.351562 C 4.558594 -5.351562 5.246094 -4.914062 5.535156 -4.15625 L 6.792969 -4.617188 C 6.332031 -5.847656 5.167969 -6.589844 3.722656 -6.589844 C 1.808594 -6.589844 0.394531 -5.296875 0.394531 -3.253906 C 0.394531 -1.210938 1.808594 0.0898438 3.722656 0.0898438 Z M 3.722656 0.0898438 "/></g></g></g><g fill="#ffffff" fill-opacity="1"><g transform="translate(14.206737, 17.545398)"><g><path d="M 2.824219 0.0898438 C 4.308594 0.0898438 5.363281 -0.804688 5.363281 -2.316406 C 5.363281 -3.820312 4.316406 -4.71875 2.824219 -4.71875 C 1.34375 -4.71875 0.292969 -3.820312 0.292969 -2.316406 C 0.292969 -0.804688 1.355469 0.0898438 2.824219 0.0898438 Z M 2.8125 -0.941406 C 2.085938 -0.941406 1.578125 -1.488281 1.578125 -2.316406 C 1.578125 -3.144531 2.085938 -3.695312 2.8125 -3.695312 C 3.5625 -3.695312 4.078125 -3.144531 4.078125 -2.316406 C 4.078125 -1.488281 3.5625 -0.941406 2.8125 -0.941406 Z M 2.8125 -0.941406 "/></g></g><g transform="translate(19.862451, 17.545398)"><g><path d="M 6.152344 -4.714844 C 5.539062 -4.714844 5.042969 -4.484375 4.71875 -4.023438 C 4.476562 -4.472656 3.972656 -4.714844 3.300781 -4.714844 C 2.734375 -4.714844 2.269531 -4.492188 1.960938 -4.082031 L 1.960938 -4.625 L 0.671875 -4.625 L 0.671875 0 L 1.960938 0 L 1.960938 -2.542969 C 1.960938 -3.410156 2.378906 -3.675781 2.832031 -3.675781 C 3.238281 -3.675781 3.574219 -3.433594 3.574219 -2.878906 L 3.574219 0 L 4.882812 0 L 4.882812 -2.609375 C 4.882812 -3.410156 5.292969 -3.675781 5.753906 -3.675781 C 6.140625 -3.675781 6.484375 -3.4375 6.484375 -2.894531 L 6.484375 0 L 7.78125 0 L 7.78125 -3.261719 C 7.78125 -4.210938 7.140625 -4.714844 6.152344 -4.714844 Z M 6.152344 -4.714844 "/></g></g><g transform="translate(28.231288, 17.545398)"><g><path d="M 6.152344 -4.714844 C 5.539062 -4.714844 5.042969 -4.484375 4.71875 -4.023438 C 4.476562 -4.472656 3.972656 -4.714844 3.300781 -4.714844 C 2.734375 -4.714844 2.269531 -4.492188 1.960938 -4.082031 L 1.960938 -4.625 L 0.671875 -4.625 L 0.671875 0 L 1.960938 0 L 1.960938 -2.542969 C 1.960938 -3.410156 2.378906 -3.675781 2.832031 -3.675781 C 3.238281 -3.675781 3.574219 -3.433594 3.574219 -2.878906 L 3.574219 0 L 4.882812 0 L 4.882812 -2.609375 C 4.882812 -3.410156 5.292969 -3.675781 5.753906 -3.675781 C 6.140625 -3.675781 6.484375 -3.4375 6.484375 -2.894531 L 6.484375 0 L 7.78125 0 L 7.78125 -3.261719 C 7.78125 -4.210938 7.140625 -4.714844 6.152344 -4.714844 Z M 6.152344 -4.714844 "/></g></g></g><g fill="#ffffff" fill-opacity="1"><g transform="translate(36.600124, 17.545398)"><g><path d="M 5.019531 -2.378906 C 5.015625 -4 4.039062 -4.722656 2.730469 -4.722656 C 1.304688 -4.722656 0.300781 -3.832031 0.300781 -2.3125 C 0.300781 -0.792969 1.277344 0.0898438 2.773438 0.0898438 C 3.8125 0.0898438 4.644531 -0.445312 4.949219 -1.382812 L 3.761719 -1.558594 C 3.585938 -1.148438 3.226562 -0.929688 2.761719 -0.929688 C 2.144531 -0.929688 1.632812 -1.300781 1.578125 -2.070312 L 5.007812 -2.070312 Z M 2.738281 -3.804688 C 3.292969 -3.804688 3.707031 -3.476562 3.746094 -2.832031 L 1.601562 -2.832031 C 1.707031 -3.507812 2.125 -3.804688 2.738281 -3.804688 Z M 2.738281 -3.804688 "/></g></g></g><g fill="#ffffff" fill-opacity="1"><g transform="translate(41.936383, 17.545398)"><g><path d="M 1.9375 -3.941406 L 1.898438 -4.625 L 0.671875 -4.625 L 0.671875 0 L 1.976562 0 L 1.976562 -2.253906 C 1.976562 -3.234375 2.441406 -3.523438 3.425781 -3.523438 L 3.425781 -4.679688 C 2.78125 -4.679688 2.191406 -4.332031 1.9375 -3.941406 Z M 1.9375 -3.941406 "/></g></g></g><g fill="#ffffff" fill-opacity="1"><g transform="translate(45.445895, 17.545398)"><g><path d="M 2.761719 0.0859375 C 3.910156 0.0859375 4.808594 -0.527344 5.035156 -1.621094 L 3.839844 -1.75 C 3.695312 -1.203125 3.292969 -0.941406 2.75 -0.941406 C 2.050781 -0.941406 1.578125 -1.492188 1.578125 -2.316406 C 1.578125 -3.144531 2.050781 -3.695312 2.75 -3.695312 C 3.292969 -3.695312 3.695312 -3.4375 3.839844 -2.882812 L 5.035156 -3.015625 C 4.808594 -4.109375 3.933594 -4.714844 2.761719 -4.714844 C 1.308594 -4.714844 0.285156 -3.757812 0.285156 -2.316406 C 0.285156 -0.882812 1.308594 0.0859375 2.761719 0.0859375 Z M 2.761719 0.0859375 "/></g></g><g transform="translate(50.73266, 17.545398)"><g><path d="M 5.019531 -2.378906 C 5.015625 -4 4.039062 -4.722656 2.730469 -4.722656 C 1.304688 -4.722656 0.300781 -3.832031 0.300781 -2.3125 C 0.300781 -0.792969 1.277344 0.0898438 2.773438 0.0898438 C 3.8125 0.0898438 4.644531 -0.445312 4.949219 -1.382812 L 3.761719 -1.558594 C 3.585938 -1.148438 3.226562 -0.929688 2.761719 -0.929688 C 2.144531 -0.929688 1.632812 -1.300781 1.578125 -2.070312 L 5.007812 -2.070312 Z M 2.738281 -3.804688 C 3.292969 -3.804688 3.707031 -3.476562 3.746094 -2.832031 L 1.601562 -2.832031 C 1.707031 -3.507812 2.125 -3.804688 2.738281 -3.804688 Z M 2.738281 -3.804688 "/></g></g></g><g clip-path="url(#fe84243eb3)"><path fill="#ffffff" d="M 63.542969 15.988281 C 63.773438 16.019531 64.222656 15.972656 64.894531 15.847656 C 65.492188 15.734375 65.980469 15.679688 66.351562 15.683594 C 66.726562 15.6875 67.078125 15.785156 67.414062 15.980469 C 67.746094 16.171875 68.015625 16.464844 68.21875 16.851562 C 68.484375 17.359375 68.5625 17.90625 68.453125 18.488281 C 68.40625 18.746094 68.304688 18.996094 68.148438 19.230469 C 68.007812 19.449219 67.824219 19.65625 67.59375 19.851562 C 67.570312 19.871094 67.550781 19.886719 67.527344 19.90625 L 68.023438 20.851562 L 66.65625 21.597656 L 66.164062 20.65625 C 66.132812 20.667969 66.097656 20.679688 66.0625 20.691406 C 65.097656 20.980469 64.246094 20.761719 63.503906 20.03125 L 64.507812 18.867188 L 64.53125 18.835938 C 64.808594 19.082031 65.074219 19.238281 65.332031 19.3125 C 65.625 19.347656 65.9375 19.273438 66.273438 19.089844 C 66.425781 19.007812 66.554688 18.917969 66.65625 18.820312 C 66.789062 18.699219 66.875 18.566406 66.921875 18.421875 C 67 18.171875 66.980469 17.929688 66.859375 17.703125 C 66.738281 17.464844 66.558594 17.328125 66.332031 17.296875 C 66.101562 17.265625 65.652344 17.3125 64.980469 17.433594 C 64.382812 17.550781 63.894531 17.605469 63.519531 17.601562 C 63.148438 17.597656 62.792969 17.5 62.460938 17.304688 C 62.128906 17.113281 61.859375 16.820312 61.65625 16.433594 C 61.390625 15.925781 61.3125 15.378906 61.421875 14.796875 C 61.46875 14.539062 61.570312 14.289062 61.722656 14.054688 C 61.867188 13.835938 62.050781 13.628906 62.28125 13.433594 C 62.304688 13.414062 62.324219 13.394531 62.347656 13.378906 L 61.851562 12.433594 L 63.21875 11.6875 L 63.710938 12.628906 C 63.742188 12.617188 63.777344 12.605469 63.808594 12.59375 C 64.777344 12.300781 65.628906 12.523438 66.367188 13.253906 L 65.367188 14.417969 L 65.34375 14.449219 C 65.066406 14.203125 64.800781 14.042969 64.542969 13.972656 C 64.25 13.9375 63.9375 14.011719 63.601562 14.195312 C 63.449219 14.277344 63.320312 14.367188 63.21875 14.464844 C 63.085938 14.585938 63 14.71875 62.953125 14.859375 C 62.875 15.113281 62.894531 15.355469 63.011719 15.582031 C 63.136719 15.820312 63.316406 15.957031 63.542969 15.988281 Z M 59.480469 7.160156 L 59.84375 7.859375 C 59.953125 8.070312 60.207031 8.148438 60.414062 8.035156 C 60.617188 7.925781 60.691406 7.664062 60.582031 7.457031 L 60.214844 6.753906 C 60.871094 6.601562 61.574219 6.90625 61.910156 7.542969 C 62.308594 8.308594 62.027344 9.261719 61.28125 9.667969 C 60.53125 10.078125 59.597656 9.789062 59.199219 9.027344 C 58.867188 8.394531 59 7.636719 59.480469 7.160156 Z M 56.675781 4.511719 C 55.949219 4.964844 55.558594 5.667969 55.199219 6.398438 C 54.933594 6.941406 54.710938 7.507812 54.328125 7.984375 C 54.242188 8.089844 54.144531 8.179688 54.027344 8.25 C 53.882812 8.339844 53.738281 8.316406 53.605469 8.222656 C 53.480469 8.128906 53.4375 7.992188 53.449219 7.835938 C 53.496094 7.3125 53.75 6.878906 54.011719 6.445312 C 54.367188 5.855469 54.792969 5.324219 55.347656 4.917969 C 55.734375 4.628906 56.164062 4.4375 56.652344 4.425781 C 56.699219 4.425781 56.71875 4.488281 56.675781 4.511719 Z M 65.125 8.054688 L 61.777344 5.921875 C 61.140625 5.453125 60.328125 5.332031 59.597656 5.582031 L 59.304688 5.015625 C 59.277344 4.96875 59.25 4.925781 59.222656 4.882812 C 58.503906 3.863281 57.136719 3.339844 55.945312 3.679688 C 54.644531 4.050781 53.746094 5.25 53.089844 6.457031 C 52.886719 6.832031 52.691406 7.222656 52.632812 7.644531 C 52.570312 8.070312 52.667969 8.539062 52.972656 8.832031 C 53.386719 9.238281 54.085938 9.199219 54.570312 8.886719 C 55.058594 8.570312 55.367188 8.042969 55.613281 7.511719 C 55.855469 6.980469 56.054688 6.417969 56.390625 5.941406 C 56.730469 5.46875 57.246094 5.078125 57.820312 5.082031 C 57.828125 5.082031 57.835938 5.082031 57.84375 5.082031 C 58.1875 5.09375 58.5 5.292969 58.660156 5.605469 L 58.863281 5.988281 C 58.265625 6.46875 57.917969 7.222656 57.949219 8.015625 L 57.832031 12.042969 C 57.886719 13.460938 58.253906 14.84375 58.910156 16.09375 L 63.671875 25.171875 C 63.925781 25.65625 64.523438 25.839844 65 25.582031 L 72.191406 21.648438 C 72.667969 21.386719 72.847656 20.78125 72.59375 20.292969 L 67.832031 11.21875 C 67.175781 9.96875 66.25 8.886719 65.125 8.054688 " fill-opacity="1" fill-rule="nonzero"/></g></svg>